<?xml version="1.0" standalone="no"?>
<!DOCTYPE svg PUBLIC "-//W3C//DTD SVG 1.1//EN" "http://www.w3.org/Graphics/SVG/1.1/DTD/svg11.dtd">
<svg xmlns="http://www.w3.org/2000/svg">
<metadata>Generated by Fontastic.me</metadata>
<defs>
<font id="vipricons" horiz-adv-x="512">
<font-face font-family="vipricons" units-per-em="512" ascent="480" descent="-32"/>
<missing-glyph horiz-adv-x="512" />

<glyph glyph-name="a" unicode="&#65;" d="M17 207l0 30c0 5 1 9 1 12 1 3 2 6 3 9 1 2 3 5 6 7 3 2 5 4 6 5 2 1 5 3 8 5 4 2 7 3 8 3 1 0 4 1 8 3 5 1 7 2 8 2 10 3 18 6 25 9 8 3 12 7 15 11 3 3 5 7 7 10 1 4 2 7 1 8 0 2 0 3 0 3 0 8-1 14-3 18-1 5-4 9-7 12-2 3-5 10-7 21-2 12-3 26-3 44 0 12 2 22 7 30 5 8 12 14 19 17 8 3 14 5 19 6 5 1 10 1 14 1l1 0c30 0 49-11 57-33-22-9-33-26-33-51 0-33 2-57 8-72 5-16 8-24 8-26l0-7c0-4-4-10-12-16-8-7-20-12-35-16l-8-3c-5-1-9-3-10-3-1-1-4-2-8-4-5-2-7-4-9-6-1-1-3-4-5-7-3-2-4-6-5-10-1-4-2-8-2-12z m215-43l-113 0 0 31c0 4 0 8 1 11 1 3 2 6 3 9 2 2 4 5 6 7 3 2 5 4 6 5 2 1 4 3 8 5 4 2 6 3 7 3 2 0 5 1 9 3 4 1 7 2 7 2 11 3 20 6 27 9 7 3 12 7 14 11 3 3 5 7 7 10 1 4 2 7 1 8-1 2-1 3 0 3 0 8-1 14-3 19-2 5-4 9-7 12-3 3-5 10-7 21-3 11-4 25-4 43 0 12 3 22 8 30 5 8 11 14 19 17 8 3 14 5 19 6 5 1 10 2 14 2l1 0c7 0 14-1 21-2 7-2 15-7 25-16 9-9 14-21 14-37 0-18-1-32-3-43-3-11-5-18-8-21-3-3-5-7-7-12-2-5-3-11-3-19l2-10-1 1-48-49 29-30-1-2-43-4z m221-33l-11-22 19-23-28-28-22 20-20-9-2-30-40 0-2 30-17 9-28-20-26 28 23 23-8 22-33 2 0 36 33 3 8 20-23 25 26 25 28-20 17 12 2 28 40 0 2-28 20-12 22 20 28-25-19-25 11-20 27-3 0-36z m-151 309c8 22 27 33 57 33l1 0c4 0 9 0 14-1 5-1 11-3 19-6 8-3 14-9 19-17 5-8 7-18 7-30 0-18-1-32-3-43-2-12-5-19-7-22-3-3-6-7-7-12-2-4-3-10-3-18l0-8c0-5 4-11 12-18 9-7 21-12 37-15l8-3c5-2 9-3 10-3 1-1 4-2 8-4 5-2 8-4 9-6 1-2 3-4 5-7 3-3 5-6 6-10 1-4 1-8 1-13l0-30-19 0 15 19-51 46-27-23-4 2-3 37-72 0-2-21c-10 8-14 16-13 25 0 1 3 9 8 25 6 15 8 39 8 72 0 25-11 42-33 51z m112-289c0 12-5 23-13 31-9 9-20 13-32 13-12 0-23-4-32-13-8-8-13-19-13-31 0-12 5-23 14-32 9-9 19-13 31-13 12 0 22 4 31 13 9 9 14 20 14 32z"/>
<glyph glyph-name="a1" unicode="&#121;" d="M37 389l0-290 86 0c31 0 65-9 101-27l-207 0 0 317z m109 46c24-3 43-7 55-11 12-4 22-9 30-15 8-5 12-9 13-11 2-2 3-3 3-5l0-311c-13 13-36 23-68 29-32 7-58 9-79 8-21-2-34-2-38-1l0 322c31 0 59-2 84-5z m221 0c-24-3-43-7-55-11-12-4-22-9-30-15-8-5-12-9-13-11-2-2-3-3-3-5l0-311c13 13 36 23 68 29 32 7 58 9 79 8 21-2 34-2 38-1l0 322c-31 0-59-2-84-5z m107-46l0-290-86 0c-31 0-64-9-100-27l207 0 0 317z"/>
<glyph glyph-name="b" unicode="&#98;" d="M333 413l0-59-1-7c0-5-4-10-11-17-6-8-16-14-27-20l-99 0c-4 0-8-3-12-7-4-4-7-10-8-17l-3 0c-30 1-55 4-77 10-21 5-36 10-46 16-10 6-17 13-23 20-5 7-8 12-8 15-1 3-1 5-1 7l0 54c7 39 60 58 160 58 43 0 79-5 109-16 30-10 46-23 47-40z m-218-214c-18 4-32 8-42 12-11 4-20 9-28 15-8 5-13 10-16 15-4 4-6 9-8 13-2 5-3 8-3 10-1 2-1 3-1 4l0 66c6-40 58-63 156-67l1 0 0-73-1-1c-21 1-41 3-58 6z m59-98l-2 0c-28 1-52 3-73 7-20 5-36 9-46 14-10 4-18 9-24 16-6 6-10 10-10 12-1 2-2 4-2 5l0 86c6-40 58-63 156-67l1 0z m97 285c25 6 38 14 38 23 0 9-13 16-38 23-26 6-58 9-94 9-37 0-69-3-95-9-26-7-39-14-39-23 0-9 13-17 39-23 26-7 57-10 95-10 36 0 68 3 94 10z m224-155l0-168c0-11-6-17-17-17l-263 0c-11 0-16 6-16 17l0 190c0 9 2 16 7 21 5 6 9 8 12 9 3 0 5 0 7 0l94 0c8 0 15-2 20-7 5-5 8-9 9-12 1-3 2-5 2-7l119 0c15 0 24-9 26-26z m-175 79c8 9 13 17 13 24l0-24z"/>
<glyph glyph-name="b1" unicode="&#73;" d="M256 337c-44 0-80-36-80-80 0-43 36-79 80-79 44 0 80 35 80 79 0 44-36 80-80 80z m0-133c-30 0-54 24-54 53 0 30 24 55 54 55 30 0 54-25 54-55 0-29-24-53-54-53z m235 16l0 78-56 6-24 42 40 51-60 54-45-40-42 24-6 55-84 0-6-55-36-24-56 39-54-54 45-50-18-42-68-6 0-78 68-6 18-48-45-44 54-60 56 39 36-18 6-62 84 0 6 62 42 18 44-39 60 60-39 44 24 48z m-113-57l36-42-24-24-41 37-69-30-6-57-36 0-5 57-63 29-52-36-20 23 42 42-30 77-63 5 0 33 64 5 28 67-42 47 22 21 54-38 59 34 5 52 39 0 5-52 67-34 42 37 24-22-37-47 36-65 52-5 0-34-52-5z"/>
<glyph glyph-name="c" unicode="&#99;" d="M424 61l-17-18c-47 39-97 58-153 58-56 0-104-19-144-59l-20 17c-49 48-73 105-73 172 0 66 23 122 70 169 46 46 103 70 169 70 66 0 123-24 169-70 47-47 70-103 70-169 0-68-24-125-71-170z m-317 161c0 7-2 12-6 17-4 4-10 6-16 6-7 0-12-2-16-6-4-5-6-10-6-17 0-6 2-11 6-15 4-5 9-7 16-7 6 0 12 2 16 7 4 4 6 9 6 15z m25 100c0 6-2 12-6 16-4 4-10 6-16 6-7 0-12-2-16-6-4-4-6-10-6-16 0-7 2-12 6-16 4-4 9-6 16-6 6 0 12 2 16 6 4 4 6 9 6 16z m162-101c0 10-4 19-11 26-8 7-17 11-27 11l-111 131 77-152c-2-7-4-12-4-16 0-10 4-19 11-26 8-8 17-12 27-12 10 0 19 4 27 12 7 7 11 16 11 26z m-112 172c0-5 3-11 7-15 4-5 9-7 16-7 6 0 11 2 16 7 4 4 6 10 6 15 0 7-2 12-6 17-5 4-10 7-16 7-7 0-12-3-16-7-4-5-7-10-7-17z m167-4c0 7-2 12-6 16-5 5-10 7-16 7-7 0-12-2-16-7-5-4-7-9-7-16 0-5 2-10 7-15 4-5 9-7 16-7 6 0 11 2 16 7 4 5 6 10 6 15z m53-89c7 0 12 2 16 6 4 4 6 9 6 16 0 6-2 12-6 16-4 4-9 6-16 6-6 0-12-2-16-6-4-4-6-10-6-16 0-7 2-12 6-16 4-4 10-6 16-6z m8-95c4-5 10-7 16-7 7 0 12 2 16 7 4 4 7 10 7 16 0 6-3 11-7 16-4 4-9 6-16 6-6 0-11-2-16-6-4-5-6-10-6-16 0-6 2-12 6-16z"/>
<glyph glyph-name="c1" unicode="&#66;" d="M116 343c0 7 15 157 141 160 123-3 141-148 141-160l-33 0c0 0-11 130-108 133-98-1-111-133-111-133z m287-26l-294 0c-31 0-57-26-57-58l0-193c0-32 26-57 57-57l294 0c31 0 57 25 57 57l0 193c0 32-26 58-57 58z m29-231c0-30-21-51-50-51l-254 0c-29 0-49 21-49 51l0 151c0 29 20 52 49 52l254 0c29 0 50-23 50-52l0-151z m-171-1l-15 9c0 0 0 65 0 65-12 6-20 18-20 32 0 20 15 36 35 36 20 0 36-16 36-36 0-14-9-26-21-32-1 0-1-65-1-65z"/>
<glyph glyph-name="d" unicode="&#100;" d="M495 246l-27 0-213 213-212-213-26 0 72 72 0 118 76 0 0-42 90 92z m-73 0l0-220-122 0 0 139-92 0 0-139-119 0 0 220 165 167z"/>
<glyph glyph-name="d1" unicode="&#67;" d="M256 227c92-3 107-133 108-151l26 0c0 10-10 172-135 176-118-3-134-171-134-176l26 0c1 17 25 151 109 151z m-1 209c-49 0-90-40-90-90 0-50 41-90 90-90 50 0 90 40 90 90 0 50-40 90-90 90z m0-156c-36 0-65 30-65 66 0 36 29 65 65 65 36 0 66-29 66-65 0-36-30-66-66-66z m150 128c-21 0-39-9-51-23 5-10 7-21 8-32 5 19 22 33 43 33 24 0 44-19 44-44 0-24-20-44-44-44-21 0-39 15-43 35-2-11-5-21-10-30 12-16 31-27 53-27 36 0 66 30 66 66 0 37-30 66-66 66z m0-135c-31-1-52-17-67-37 6-5 12-10 17-16 12 18 27 30 50 30 64 0 76-93 77-106l21 0c0 7-7 127-98 129z m-298 135c21 0 39-9 51-23-5-10-7-21-8-32-5 19-22 33-43 33-24 0-44-19-44-44 0-24 20-44 44-44 21 0 39 15 43 35 2-11 5-21 10-30-12-16-31-27-53-27-36 0-66 30-66 66 0 37 30 66 66 66z m0-135c31-1 52-17 67-37-6-5-12-10-17-16-12 18-27 30-50 30-64 0-76-93-77-106l-21 0c0 7 7 127 98 129z"/>
<glyph glyph-name="e" unicode="&#101;" d="M488 394c5-5 7-11 7-18 0-3 0-6-1-8l-13-36-62-191-256 0-83 289-39 0c-6 0-12 2-17 7-5 4-7 10-7 17 0 7 2 13 7 18 5 4 11 6 17 6l64 0c7 0 11-2 14-7l83-282 185 0 60 193c3 13 12 19 24 19 6 0 12-2 17-7z m-286-271c-12 0-23-5-32-14-8-8-13-19-13-31 0-12 5-23 13-31 9-9 20-14 32-14 13 0 23 5 32 13 8 8 12 19 12 32 0 13-4 24-12 32-9 8-19 13-32 13z m14 258c-3 3-7 5-12 5-5 0-10-2-13-5-3-3-5-8-5-13 0-4 2-8 6-11 3-4 7-5 12-5 4 0 8 1 12 5 3 3 5 7 5 11 0 5-1 10-5 13z m18-57c-5 0-9-2-12-5-4-3-6-8-6-13 0-5 2-9 6-12 3-4 7-5 12-5 4 0 8 2 11 5 4 4 5 8 5 12 0 5-1 9-5 12-3 4-7 6-11 6z m30-63c-5 0-10-2-13-5-3-4-5-8-5-13 0-4 2-8 5-12 3-3 8-5 13-5 5 0 9 2 12 5 4 4 5 8 5 12 0 5-1 9-5 13-3 3-7 5-12 5z m13 120c-4 3-8 5-12 5-5 0-9-2-12-5-4-3-6-8-6-13 0-4 2-8 6-11 3-4 7-5 12-5 4 0 8 1 12 5 3 3 5 7 5 11 0 5-2 10-5 13z m23-57c-5 0-9-2-13-5-3-3-5-8-5-13 0-5 2-9 5-12 4-4 8-5 13-5 4 0 8 1 12 5 3 3 5 7 5 12 0 5-2 10-5 13-4 3-8 5-12 5z m41 57c-4 3-8 5-12 5-5 0-9-2-13-5-3-3-5-8-5-13 0-4 2-8 5-11 4-4 8-5 13-5 4 0 8 1 12 5 3 3 5 7 5 11 0 5-2 10-5 13z m-12-120c-5 0-9-2-13-5-3-4-5-8-5-13 0-4 2-8 5-12 4-3 8-5 13-5 4 0 8 2 12 5 3 4 5 8 5 12 0 5-2 9-5 13-4 3-8 5-12 5z m57-138c-13 0-24-5-33-14-8-8-13-19-13-31 0-12 5-23 13-31 9-9 20-14 33-14 12 0 22 5 31 14 9 8 13 19 13 31 0 12-4 23-13 31-9 9-19 14-31 14z m-27 201c-4 0-8-2-12-5-3-3-5-8-5-13 0-5 2-9 5-12 4-4 8-5 12-5 5 0 9 1 13 5 3 3 5 7 5 12 0 5-2 10-5 13-4 3-8 5-13 5z m42 57c-4 3-8 5-12 5-5 0-9-2-13-5-3-3-5-8-5-13 0-4 2-8 5-11 4-4 8-5 13-5 4 0 8 1 12 5 3 3 5 7 5 11 0 5-2 10-5 13z"/>
<glyph glyph-name="e1" unicode="&#68;" d="M256 478c-127 0-197-36-197-74l0-301c1-37 91-69 197-69 106 0 196 36 197 73l0 301c0 39-74 70-197 70z m0-27c86 0 173-18 173-49 0-31-87-55-173-55-87 0-173 24-173 55 0 31 87 49 173 49z m0-135c81 0 145 16 171 37l0-66c-16-18-52-40-172-42-124 4-157 26-171 43l0 66c29-25 91-38 172-38z m-172-62c18-14 68-34 170-36 108-1 154 22 173 35l0-55c-16-17-52-40-172-42-124 4-157 27-171 44l0 54z m172-190c-160 4-171 49-172 52l0 49c18-14 68-34 170-36 108 0 154 23 173 35l0-49c0 0 5-45-171-51z"/>
<glyph glyph-name="f" unicode="&#102;" d="M75 146c-5 2-8 7-8 15l0 317c0 11 5 17 14 17l157 0c8 0 12-5 12-14l0-323-159 0c-8 0-14-4-16-12z m334-17c4-4 6-9 6-15l0-76c0-6-2-11-6-15-4-4-9-6-15-6l-283 0c-5 0-10 2-14 6-3 4-5 9-5 15l0 76c0 6 2 11 5 15 4 4 9 6 14 6l283 0c6 0 11-2 15-6z m-316 303c0-6 3-10 10-10l113 0c6 0 9 4 9 10 0 7-3 11-9 11l-113 0c-7 0-10-4-10-11z m0-48c0-7 3-10 10-10l113 0c6 0 9 3 9 10 0 7-3 10-9 10l-113 0c-7 0-10-3-10-10z m0-53c0-7 3-11 10-11l113 0c6 0 9 4 9 11 0 7-3 11-9 11l-113 0c-7 0-10-4-10-11z m0-53c0-6 3-10 10-10l113 0c6 0 9 4 9 10 0 8-3 12-9 12l-113 0c-7 0-10-4-10-12z m0-53c0-7 3-10 10-10l113 0c6 0 9 3 9 10 0 8-3 11-9 11l-113 0c-7 0-10-3-10-11z m58-117c-11 0-16-6-16-16 0-11 5-16 16-16 10 0 15 5 15 16 0 10-5 16-15 16z m77 1l-22 0 0-42 22 0z m49 0l-23 0 0-42 23 0z m168 241l0-42c0-5-3-8-9-8l-153 0c-6 0-9 3-9 8l0 42c0 6 3 10 9 10l153 0c6 0 9-4 9-10z m0-77l0-42c0-6-3-10-9-10l-153 0c-6 0-9 4-9 10l0 42c0 6 3 9 9 9l153 0c6 0 9-3 9-9z m0-79l0-45c0-7-3-10-9-10l-5 0c-2 13-9 19-21 19l-136 0 0 36c0 7 3 10 9 10l153 0c6 0 9-3 9-10z m-133 145c0 3-2 5-5 5l-13 0c-3 0-4-2-4-5 0-2 1-4 4-4l13 0c3 0 5 2 5 4z m0-76c0 3-2 4-5 4l-13 0c-3 0-4-1-4-4 0-4 1-5 4-5l13 0c3 0 5 1 5 5z m0-79c0 3-2 4-5 4l-13 0c-3 0-4-1-4-4 0-3 1-5 4-5l13 0c3 0 5 2 5 5z m14-75l-22 0 0-42 22 0z m49 0l-22 0 0-42 22 0z"/>
<glyph glyph-name="g" unicode="&#103;" d="M428 300c5-6 8-12 8-20l0-235c0-8-3-14-8-20-6-5-12-8-20-8l-304 0c-8 0-14 3-20 8-5 6-8 12-8 20l0 236c0 8 3 14 8 20 6 5 12 8 20 8l10 0 0 88c0 27 9 50 28 69 19 19 43 29 70 29l88 0c27 0 51-10 70-29 19-19 28-42 28-69l0-88 10 0c8 0 14-3 20-9z m-74 9l0 75c0 19-7 35-20 48-13 13-29 20-48 20l-60 0c-19 0-35-7-48-20-13-13-20-29-20-48l0-75z m-85-158c15 6 23 17 23 32 0 10-4 18-11 25-7 7-15 10-25 10-10 0-18-3-25-10-7-7-11-15-11-25 0-14 7-24 21-31l-13-66 54 0z"/>
<glyph glyph-name="g1" unicode="&#69;" d="M256 387c0 0-23 51-196 51l0-328c0 0 150 10 196-36 46 46 195 36 195 36l0 328c-173 0-195-51-195-51z m-14-283c-50 36-160 28-160 28l0 285c150 0 160-43 160-43z m186 28c0 0-110 7-160-29l0 270c0 0 10 40 160 44z m67 264l0-322-210 0c0 0 55 20 101 20l88 0 0 302z m-457 0l0-302 88 0c46 0 102-20 102-20l-211 0 0 322z"/>
<glyph glyph-name="h" unicode="&#97;" d="M436 214l-24-47 41-48-60-60-48 41-41-17-6-66-84 0-6 66-36 17-59-41-54 60 47 48-17 47-72 6 0 78 72 6 17 41-47 54 54 54 59-41 36 24 6 59 84 0 6-59 41-24 48 41 60-54-41-54 24-41 59-6 0-78z m-84 43c0 26-10 49-28 68-19 19-42 29-68 29-26 0-49-10-68-29-18-19-28-42-28-68 0-26 10-49 28-67 19-19 42-29 68-29 26 0 49 10 68 29 18 18 28 41 28 67z"/>
<glyph glyph-name="h1" unicode="&#72;" d="M431 308c-11 60-62 106-124 106-45 0-85-24-108-61-2 0-3 0-5 0-55 0-100-34-108-78-48-2-86-41-86-89 0-49 40-88 89-88 1 0 321 0 321 0 0 0 1 0 1 0 56 0 101 46 101 105 0 52-35 95-81 105z m-34-185c-1 0-296 0-297 0-40 0-74 28-74 68 0 26 30 61 77 62 11 46 47 77 109 75 18 30 50 61 96 60 68-6 93-51 101-98 46-8 78-41 78-83 0-48-43-86-90-84z"/>
<glyph glyph-name="i" unicode="&#105;" d="M454 398c1-11 0-27-2-47-3-20-6-41-10-62-3-22-10-46-20-71-11-26-22-50-35-74-13-23-31-46-53-68-22-22-47-41-75-56l0-3c-1 1-2 1-3 1-1 0-2 0-3-1l0 3c-28 15-53 34-75 56-22 22-40 45-53 68-13 22-24 46-35 71-10 26-17 49-20 70-4 22-7 42-10 62-2 20-3 35-2 46 1 11 2 19 1 24 0 3 4 4 11 4 7 0 17 1 29 2 13 1 24 3 33 8 8 3 22 11 41 22 19 11 36 21 52 29 15 9 25 13 31 13 6 0 16-4 32-13 15-8 33-18 52-30 19-11 33-19 41-22 9-5 20-7 33-7 13 0 22 1 27 2 6 2 9 1 12-2-1-5 0-13 1-25z m-132-269c18 20 32 40 42 60 9 20 18 41 25 63 7 22 11 41 12 58 1 17 2 32 4 45 1 13 1 21-1 23 0 2-2 3-8 3-6-1-13-1-22 0-10 1-18 3-26 6-6 3-16 9-30 17-14 8-27 16-38 22-12 6-20 9-24 9-4 0-12-3-23-9-12-6-24-13-38-21-14-9-24-14-30-17-7-4-16-5-26-6-10 0-18 0-22 1-4 1-8 0-9-3-2-2-2-10-1-23 2-13 3-28 4-45 1-17 5-36 12-58 7-22 16-44 25-64 10-20 24-40 42-60 19-21 40-38 64-51l0-2 1 0 1 1 1-1 1 0 0 2c24 13 45 30 64 50z m-3 56c16 23 27 46 33 70 5 24 8 42 9 56 2 13 2 24 1 33-1 2-3 2-6 2-3-1-8-1-15-1-7 0-13 2-19 4-4 2-11 6-22 12-10 7-19 12-27 16-8 5-14 7-17 7-3 0-9-2-16-7-8-4-17-9-27-15-10-6-17-10-22-12-5-2-11-4-19-4-7 0-12 0-15 1-4 0-6 0-7-2-1-8-1-19 1-33 1-14 4-33 9-56 6-24 17-48 33-71 16-24 37-42 62-56l0-1 2 0 0 1c25 14 46 32 62 56z"/>
<glyph glyph-name="i1" unicode="&#71;" d="M256 495c-132 0-239-107-239-239 0-132 107-239 239-239 132 0 239 107 239 239 0 132-107 239-239 239z m0-447c-115 0-208 93-208 208 0 115 93 208 208 208 115 0 208-93 208-208 0-115-93-208-208-208z m167 284l-146-48c-6 4-13 7-21 7-22 0-39-18-39-39 0-22 17-39 39-39 22 0 39 17 39 39z m-167-98c-10 0-18 8-18 18 0 10 8 18 18 18 10 0 18-8 18-18 0-10-8-18-18-18z m10 225c-2 0-8 0-10 0-2 0-7 0-9 0l0-41 19 0z m-168-77l27-28 13 13-28 29c-3-4-9-10-12-14z m301 18l-28-29 13-13 27 28c-3 4-9 10-12 14z m-306-140l-40 0c0 0 0 0 0 0 0-6 1-12 1-19l39 0z m327-19l39 0c0 7 0 13 0 19 0 0 0 0 0 0l-39 0z"/>
<glyph glyph-name="j" unicode="&#106;" d="M258 376c-15-4-27-11-38-21-2 2-4 3-8 3l-134 0c-3 0-6-2-8-4-2-3-4-6-4-9 0-3 2-6 4-9 3-3 5-5 8-5l128 0c-4-8-5-17-5-28 0-7 0-13 1-17l-124 0c-8 0-12-5-12-14 0-3 2-6 4-8 2-3 5-4 8-4l126 0c1-15 5-30 10-47 0 1-1 1-2 1l-134 0c-8 0-12-4-12-13 0-3 2-6 4-9 2-2 5-4 8-4l134 0c6 0 9 3 11 8 3-8 5-15 4-23l0-4c1-3-2-8-7-13-6-5-14-10-26-14l-116 0c-3 0-6-1-8-4-2-3-4-6-4-9 0-9 4-13 12-13l49 0c-15-11-23-26-23-46l0-25-54 0c-5 0-9 2-12 6-4 5-5 10-5 15l0 409c0 5 1 10 4 14 4 4 8 6 13 6l196 0c8 0 12-6 12-17z m-34 41c0 9-4 13-12 13l-134 0c-8 0-12-4-12-13 0-4 2-7 4-9 2-3 5-4 8-4l134 0c8 0 12 4 12 13z m80-57c6 0 12-1 18-2 6-1 15-3 25-7 10-4 19-11 25-22 7-11 10-24 10-39 0-23-2-42-5-56-3-14-6-23-9-27-4-4-7-9-9-15-3-6-4-14-4-24l0-10c0-6 5-14 16-23 10-9 26-16 47-20 0 0 3-1 8-3 5-1 8-2 9-3 2-1 5-2 9-3 4-2 7-3 9-5 2-1 5-3 9-5 3-2 6-5 7-7 2-3 4-6 6-9 2-3 3-7 3-11 1-4 1-8 1-12l0-40-350 0 0 40c0 4 1 7 1 11 1 4 2 8 3 11 1 2 2 5 5 8 2 2 4 4 5 6 2 2 4 4 8 6 3 2 5 4 7 5 1 1 4 2 8 3 4 1 6 2 8 3 1 1 4 2 8 3 4 1 7 2 7 2 14 2 25 6 35 11 9 5 15 9 19 14 3 4 6 9 9 13 2 5 3 8 2 11-1 2-2 3-1 4 0 10-1 18-4 24-2 6-5 11-9 15-4 4-7 13-10 27-3 14-4 33-4 56 0 15 3 28 10 39 6 11 14 18 24 22 10 4 19 6 25 7 6 1 13 1 18 1l1 0z"/>
<glyph glyph-name="j1" unicode="&#70;" d="M41 478l0-444 430 0 0 444z m199-422l-176 0 0 399 176 0z m209 0l-176 0 0 399 176 0z m-360 361l124 0 0-14-124 0z m0-49l124 0 0-14-124 0z m0-48l124 0 0-14-124 0z m0-50l124 0 0-14-124 0z m0-49l124 0 0-14-124 0z m0 0l124 0 0-14-124 0z m0-49l124 0 0-14-124 0z m0-49l124 0 0-14-124 0z m210 294l124 0 0-14-124 0z m0-49l124 0 0-14-124 0z m0-48l124 0 0-14-124 0z m0-50l124 0 0-14-124 0z m0-49l124 0 0-14-124 0z m0 0l124 0 0-14-124 0z m0-49l124 0 0-14-124 0z m0-49l124 0 0-14-124 0z"/>
<glyph glyph-name="k" unicode="&#107;" d="M435 299l-358 0 179 196z m-358-86l358 0-179-196z"/>
<glyph glyph-name="l" unicode="&#108;" d="M17 387l478 0-239-262z"/>
<glyph glyph-name="m" unicode="&#109;" d="M495 125l-478 0 239 262z"/>
<glyph glyph-name="n" unicode="&#110;" d="M256 490c6 0 12 0 18-1 7-1 16-3 27-6 11-3 21-8 29-14 8-7 16-16 22-29 6-12 10-27 10-45 0-32-2-57-6-77-4-19-9-32-13-37-5-5-9-12-13-21-3-8-5-19-4-32l0-14c0-8 7-19 21-31 14-12 36-21 64-28 2 0 6-2 13-4 7-2 12-3 14-4 3-1 7-3 14-6 6-3 11-6 14-8 3-2 6-4 11-8 5-4 8-9 10-13 2-4 4-9 5-15 2-6 3-13 3-20l0-55-478 0 0 55c0 7 1 14 3 20 1 6 3 11 5 15 2 4 5 9 10 13 5 4 8 7 11 9 3 2 7 4 13 7 7 3 11 5 13 5 3 1 7 3 15 5 7 2 11 4 13 4 18 4 33 10 45 16 13 7 22 13 27 19 5 6 9 12 12 19 3 6 4 11 3 14-1 3-1 4-1 5 1 13-1 24-5 32-4 9-8 16-13 21-4 5-9 18-13 37-4 20-6 46-6 77 0 18 4 33 10 45 6 13 14 22 22 29 8 6 18 11 29 14 11 3 20 5 27 6 6 1 12 1 18 1l1 0z"/>
<glyph glyph-name="o" unicode="&#112;" d="M425 425c-47 47-103 70-169 70-66 0-122-23-169-70-47-47-70-103-70-169 0-66 23-122 70-169 47-47 103-70 169-70 66 0 122 23 169 70 47 47 70 103 70 169 0 66-23 122-70 169z m-34-306c-38-38-83-56-135-54-55 2-101 21-137 58-36 36-54 80-54 133 0 53 18 98 56 135 37 38 82 56 135 56 53 0 98-18 135-56 38-37 56-82 56-135 0-53-18-98-56-137z m-38 73l-69 35c0 1 0 3 0 4 0 10-3 18-10 25-3 2-5 3-8 5l0 127c0 5-2 9-5 13-4 3-8 5-13 5-5 0-10-2-13-5-4-4-6-8-6-13l0-129c-2-1-3-2-5-3-7-7-10-15-10-25 0-10 3-19 10-25 7-7 16-11 25-11 5 0 10 1 14 3l83-43c5-1 9 0 14 3 4 3 6 7 7 11 1 5 0 10-3 14-2 5-6 7-11 9z"/>
<glyph glyph-name="p" unicode="&#113;" d="M17 144l0 31c0 4 1 8 1 11 1 4 2 7 3 9 1 3 3 5 6 7 3 3 5 4 6 5 2 2 5 3 8 5 4 2 7 3 8 3 1 1 4 2 8 3 5 2 7 3 8 3 16 3 28 8 36 15 7 8 12 13 12 17 1 3 1 6 0 9 0 7-1 13-3 18-1 4-4 8-7 11-2 4-5 11-7 22-2 11-3 26-3 44 0 12 2 22 7 30 5 8 11 13 19 16 8 4 14 6 19 7 5 0 10 1 14 1l1 0c30 0 49-11 57-34-22-8-33-26-33-51 0-32 2-56 8-72 5-15 8-24 8-25l0-7c0-5-4-11-12-17-8-7-20-12-35-16-11-3-18-6-22-7-4-2-9-6-15-12-7-7-10-15-10-26l-82 0z m238 224c7 0 14-1 21-2 7-1 15-6 25-15 9-9 14-22 14-37 0-18-1-33-3-44-3-11-5-18-8-21-3-4-5-7-7-12-2-5-3-11-3-18l0-8c0-5 4-11 13-18 8-6 21-12 37-15 0 0 3-1 8-3 4-1 8-3 9-3 2-1 5-3 9-5 4-2 7-3 9-5 1-2 3-4 6-7 2-3 4-6 5-10 1-4 1-8 1-12l0-32-272 0 0 32c0 4 0 7 1 11 1 3 2 6 3 8 2 3 4 5 6 7 3 3 5 4 6 6 2 1 4 2 8 4 4 2 6 3 8 3 1 1 4 2 8 3 4 2 7 3 7 3 11 2 20 5 27 8 7 4 12 7 14 11 3 4 5 8 7 11 1 3 2 6 1 8-1 2-1 3 0 3 0 7-1 13-3 18-2 5-4 8-7 12-3 3-5 10-7 21-3 11-4 26-4 44 0 12 3 22 8 30 5 8 11 13 19 17 8 3 14 5 19 6 5 1 10 1 14 1z m240-224l0 31c0 4-1 8-1 12-1 4-3 8-6 11-2 2-4 5-5 7-1 2-4 3-9 5-4 2-7 3-8 4-1 1-5 2-10 4l-8 3c-16 3-28 8-36 15-8 8-13 13-13 17-1 3-1 6 0 9 0 7 1 13 3 18 1 4 4 8 7 11 2 4 5 11 7 22 2 11 3 26 3 44 0 12-2 22-7 30-5 8-12 13-19 16-8 4-14 6-19 7-5 0-10 1-14 1l-1 0c-30 0-49-11-57-34 22-8 33-25 33-51 0-32-2-56-8-72-5-15-8-24-8-25l0-7c0-5 4-10 12-17 8-7 20-12 35-16 11-3 18-6 22-7 4-2 9-6 15-12 7-7 10-15 10-26z"/>
<glyph glyph-name="q" unicode="&#114;" d="M392 444l103-87-103-87 0 49-74 0-184-201-117 0 0 72 87 0 193 206 95 0z m-245-161l45 47-58 64-117 0 0-72 87 0 39-43z m348-128l-103 87 0-49-74 0-37 40-2-2-44-48 62-67 95 0 0-48z"/>
<glyph glyph-name="r" unicode="&#115;" d="M232 107c-26 0-49 3-68 8-19 5-33 10-42 16-8 6-15 12-20 18-5 6-7 11-8 15l-1 6 0 54c6-35 52-54 139-59 26 2 49 5 68 9 20 5 34 10 43 15 9 6 17 11 22 16 5 6 8 10 9 14l1 5 0-54c0-2 0-4-1-6 0-3-3-8-8-15-6-7-13-13-21-19-9-5-24-10-43-15-20-5-43-8-70-8z m143 194c0 15-13 26-39 35-27 9-61 13-101 13-41 0-74-4-100-13-25-8-40-20-42-36 0-1 0-2 0-2 0 0 0 0 0 1l0-37 1-6c0-5 2-10 7-17 5-6 12-12 21-19 8-6 22-12 41-17 19-5 42-8 68-9 27 1 50 4 70 9 19 6 34 11 43 17 9 6 16 13 22 20 5 8 8 13 8 16 1 3 1 5 1 7l0 39z m-224 19c23 5 51 8 84 8 33 0 61-3 84-8 24-6 35-12 35-19 0-8-11-15-35-21-23-5-51-8-84-8-33 0-61 3-84 8-23 6-35 13-35 21 0 7 12 13 35 19z m-134 119l0-421 420 0 0 421z m392-391l-362 0 0 362 362 0z m-334 446l0-84 29 0 0 55 362 0 0-362-57 0 0-30 86 0 0 421z"/>
<glyph glyph-name="s" unicode="&#116;" d="M492 256c-4-5-20-22-49-51l-27 29-29-29-25 29-27-29-27 29-36-35-45 0c-10-17-24-30-42-40-17-10-36-15-56-15-31 0-57 11-79 33-22 21-33 48-33 79 0 31 11 58 33 79 22 22 48 33 79 33 45 0 78-19 99-58l226 0 38-40c4-4 4-8 0-14z m-380-1c0 9-3 16-8 22-6 6-13 9-21 9-9 0-16-3-22-9-5-6-8-13-8-22 0-8 3-15 8-21 6-6 13-9 22-9 8 0 15 3 21 9 5 6 8 13 8 21z"/>
<glyph glyph-name="t" unicode="&#117;" d="M425 425c-47 47-103 70-169 70-66 0-122-23-169-70-47-47-70-103-70-169 0-66 23-122 70-169 47-47 103-70 169-70 66 0 122 23 169 70 47 47 70 103 70 169 0 66-23 122-70 169z m-39-27l9 12c24-15 43-40 56-72l-34 18-17-14-14 7 4 23z m-121 69c26-5 41-8 47-12l-20-20-54-2-33 20c18 9 38 14 60 14z m96-331c-7-15-10-24-10-27l-1-38c-6-6-10-9-11-10-8-6-16-8-23-8-1 0-7 7-18 22-11 15-17 24-17 27-4 6-6 18-8 37 0 4 1 13 5 27 3 14 5 23 5 26l-72 1c-3 0-7 2-12 4-6 2-14 8-25 18-11 10-20 23-25 38l6-29c-9 8-14 22-14 41-1 3-3 6-5 11-3 4-5 8-7 12-2 3-3 5-3 6 0 1 1 8 4 22 4 14 6 22 8 24 1 2 0 7-2 14 0 1-1 2-1 3-1 2-1 3-2 4-1 1-2 3-3 5-2 1-4 3-8 4-3 2-7 3-11 4l-11-9-11 14 18 24c1 0 1 0 2 1 1 0 3 1 7 2 3 1 6 2 9 3 3 1 7 2 11 3 4 1 9 2 12 4 4 1 8 2 12 3 5 1 8 2 11 3 3 0 6 1 8 1 3 0 4 0 5 0 1 0 5-1 12-5 6-3 12-5 17-6 4-1 11 1 18 5l30-26c13-9 23-21 32-36 5-8 8-11 9-11-18-20-27-33-28-39-9-33-12-51-11-55l7-21-4-2c-1 2-1 5-3 9-1 4-4 8-9 13-5 5-10 6-17 4-10-3-17-8-21-16-1-9-1-16 1-19 1-2 11-4 28-7 17-3 28-5 33-5 3 1 12 1 27-1 15-1 24-3 28-6l28-29z m80 78c-3 1-8 2-13 4-6 3-14 9-25 19-12 10-20 21-26 35l0 19 35 35c31-7 49-14 53-19 5-6 7-22 7-49 1-26-4-50-15-71z"/>
<glyph glyph-name="u" unicode="&#118;" d="M182 97l-16 0-5 50-27 13-45-32-41 46 37 36-14 36-54 4 0 59 54 5 14 31-37 41 41 40 45-31 27 18 5 45 63 0 5-45 31-18 36 31 45-40-25-33c-12-1-23-5-35-12-12-7-19-19-22-36-5 14-14 25-26 33-12 9-26 13-41 13-20 0-37-7-51-21-14-15-21-32-21-52 0-20 7-37 21-51 14-13 31-20 51-20 15 0 29 4 42 13 12 8 21 20 26 33 1-14 4-25 9-34 6-8 9-17 11-27l0-5c1-3-1-7-4-13-4-5-9-10-16-14l-20-8c-5-2-9-3-12-3l-7-2c-5-2-7-3-8-3-1-1-4-2-7-3-4-1-7-3-8-4-1-1-3-3-6-5-3-2-5-4-6-6-1-2-3-4-4-6-2-3-3-6-4-9 0-3-1-7-1-11z m169 240c7 0 14 0 22-2 8-1 17-6 27-16 10-10 15-23 15-40 0-32-4-55-11-68-8-12-11-23-11-32l0-8c0-6 5-12 13-19 8-8 21-13 39-17 0 0 3-1 7-2 5-2 8-3 9-3 1-1 4-2 8-4 4-2 7-3 9-4 2-2 4-4 6-6 3-3 5-5 6-8 1-3 3-6 4-9 0-4 1-8 1-12l0-33-288 0 0 33c0 5 0 9 1 13 1 4 3 8 5 11 3 3 5 6 7 8 1 2 4 4 9 5 4 2 7 4 9 4 1 1 4 2 9 4 5 2 8 3 9 3 17 4 30 10 39 18 9 7 13 13 14 16 0 4 0 7-1 10 0 7-1 14-3 19-2 5-4 9-7 13-3 3-5 10-8 22-2 11-3 27-3 46 0 17 5 30 15 40 10 10 19 15 26 16 8 2 15 2 22 2l1 0z"/>
<glyph glyph-name="v" unicode="&#119;" d="M238 106l-221 0 0 45c0 5 1 10 2 15 0 4 2 8 4 12 2 3 4 6 6 9 1 3 4 6 8 8 4 3 7 5 9 7 2 1 5 3 10 5 5 2 8 3 9 3 2 0 5 2 11 3 5 2 8 3 9 3 15 4 27 8 38 13 10 6 17 11 21 16 4 5 7 10 10 15 2 5 3 8 2 11-1 2-1 4 0 5 0 10-1 19-4 26-3 7-7 12-11 17-4 4-7 14-10 30-3 16-5 37-5 63 0 17 4 32 11 44 7 12 16 20 27 24 12 5 21 7 28 9 7 1 14 2 20 2l1 0c7 0 14-1 21-2 7-2 16-4 28-9 11-4 20-12 27-24 7-12 11-27 11-44 0-26-2-47-5-63-3-16-7-26-10-30-4-5-8-10-11-17-3-7-4-16-4-26l-1-4c0-3 1-6 3-11 1-4 4-9 7-13-29-31-44-67-44-110 0-10 1-21 3-32z m227 13l-11-24 21-23-30-30-24 20-21-8-3-33-41 0-3 33-18 8-29-20-26 30 23 23-9 24-35 3 0 38 35 3 9 21-23 27 26 26 29-21 18 13 3 28 41 0 3-28 21-13 24 21 30-26-21-27 11-21 30-3 0-38z m-55-12c10 9 14 20 14 33 0 13-4 25-14 34-9 9-20 14-33 14-13 0-24-5-34-14-9-9-13-21-13-34 0-13 4-24 13-33 10-9 21-14 34-14 13 0 24 5 33 14z"/>
<glyph glyph-name="w" unicode="&#120;" d="M39 123l-9 0c-9 0-13 5-13 15l0 305c0 11 4 16 13 16l150 0c9 0 13-4 13-14l0-100c-11-4-22-9-31-15-1 0-2 1-3 1l-108 0c-7 0-10-4-10-11 0-6 3-10 10-10l87 0c-8-8-14-16-18-25l-69 0c-7 0-10-4-10-10 0-7 3-11 10-11l59 0c-3-11-6-19-7-25l-52 0c-7 0-10-3-10-10 0-7 3-10 10-10l45 0c-13-6-24-15-34-27l-11 0c-7 0-10-3-10-10 0-4 3-7 7-9-8-16-10-32-9-49z m2 286c0-7 3-10 10-10l108 0c6 0 9 3 9 10 0 6-3 9-9 9l-108 0c-7 0-10-3-10-9z m0-43c0-7 3-10 10-10l108 0c6 0 9 3 9 10 0 7-3 10-9 10l-108 0c-7 0-10-3-10-10z m391-145c22-19 33-42 33-69 0-26-11-50-33-70-21-20-46-29-73-29l-217 0c-22 0-40 7-56 23-15 15-23 34-23 56 0 18 5 34 17 48 11 14 25 23 43 27l0 3c0 33 11 60 34 84 23 23 51 35 83 35 26 0 49-8 69-22 20-15 34-34 43-58l7 0c27 0 52-9 73-28z m63 166l0-45-1-5c-1-3-3-7-7-12-5-5-11-10-19-14-7-5-20-9-37-13-16-5-36-7-58-7-2 0-5 0-10 0-4 0-7 0-9 0-19 36-52 56-99 59l0 33c6 29 46 44 120 44 33 0 61-4 84-12 23-8 35-18 36-30z m-48-21c20 4 30 10 30 17 0 7-10 13-30 18-20 5-44 7-72 7-27 0-51-2-70-7-20-5-30-11-30-18 0-7 10-13 30-17 19-5 43-7 70-7 28 0 52 2 72 7z m-15-82c16 4 28 8 36 12 7 4 13 9 18 15 5 6 7 10 8 12 1 2 1 4 1 5l0-51-2-7c-1-4-4-10-12-17-7-7-17-14-29-18-22 23-49 35-79 35-4 0-7 0-9-1l-3 8c3 0 7 0 13 0 22 0 41 2 58 7z m63-27l0-65-10-14c-5 18-13 33-23 45 21 10 32 21 33 34z"/>
<glyph glyph-name="x" unicode="&#122;" d="M85 111l0-51c0-2 0-4-2-7-1-1-3-1-6-1l-52 0c-3 0-5 0-5 1-2 2-3 5-3 7l0 51c0 2 1 4 3 6 0 2 2 3 5 3l52 0c2 0 4-1 6-3 2-3 2-4 2-6z m103 34l0-85c0-3-1-5-3-7-1-1-2-1-6-1l-51 0c-3 0-5 0-6 1-2 3-2 5-2 7l0 85c0 2 0 4 2 6 2 2 4 2 6 2l51 0c3 0 5 0 6-2 2-1 3-4 3-6z m103 68l0-153c0-3-1-5-3-7-2-1-4-1-7-1l-50 0c-3 0-5 0-7 1-2 2-3 4-3 7l0 153c0 3 1 5 3 7 2 1 4 1 7 1l50 0c3 0 5 0 7-1 2-2 3-4 3-7z m101 103l0-256c0-2 0-4-2-7-1-1-3-1-6-1l-51 0c-4 0-5 0-6 1-2 2-3 5-3 7l0 256c0 2 1 4 3 6 1 2 3 2 6 2l51 0c2 0 4-1 6-2 2-2 2-4 2-6z m103 136l0-392c0-3-1-5-3-7 0-1-2-1-5-1l-52 0c-3 0-5 0-6 1-2 3-2 5-2 7l0 392c0 2 0 4 2 7 1 1 3 1 6 1l52 0c3 0 5 0 5-1 2-2 3-5 3-7z"/>
</font>
</defs>
</svg>
