<?xml version="1.0" encoding="utf-8"?>
<!-- Generator: Adobe Illustrator 19.2.1, SVG Export Plug-In . SVG Version: 6.00 Build 0)  -->
<svg version="1.1" id="Layer_1" xmlns="http://www.w3.org/2000/svg" xmlns:xlink="http://www.w3.org/1999/xlink" x="0px" y="0px"
	 viewBox="0 0 144 144" style="enable-background:new 0 0 144 144;" xml:space="preserve">
<style type="text/css">
	.st0{clip-path:url(#SVGID_2_);fill:#F1F2F2;}
	.st1{opacity:0.5;clip-path:url(#SVGID_4_);}
	.st2{fill:none;stroke:#D1D3D4;stroke-width:0.25;stroke-miterlimit:10;}
	.st3{fill:none;stroke:#808285;stroke-width:0.25;stroke-miterlimit:10;}
	.st4{fill:none;stroke:#BCBEC0;stroke-width:0.25;stroke-miterlimit:10;}
</style>
<g id="Layer_3">
</g>
<g id="Layer_2">
	<g>
		<g>
			<defs>
				<rect id="SVGID_1_" width="144" height="144"/>
			</defs>
			<clipPath id="SVGID_2_">
				<use xlink:href="#SVGID_1_"  style="overflow:visible;"/>
			</clipPath>
			<rect x="-36" y="-36" class="st0" width="576.1" height="576"/>
		</g>
		<g>
			<defs>
				<rect id="SVGID_3_" width="144" height="144"/>
			</defs>
			<clipPath id="SVGID_4_">
				<use xlink:href="#SVGID_3_"  style="overflow:visible;"/>
			</clipPath>
			<g class="st1">
				<g>
					<g>
						<line class="st2" x1="99" y1="108" x2="99" y2="-36"/>
						<line class="st2" x1="90" y1="108" x2="90" y2="-36"/>
						<line class="st2" x1="81" y1="108" x2="81" y2="-36"/>
						<line class="st2" x1="72" y1="108" x2="72" y2="-36"/>
						<line class="st2" x1="63" y1="108" x2="63" y2="-36"/>
						<line class="st2" x1="54" y1="108" x2="54" y2="-36"/>
						<line class="st2" x1="45" y1="108" x2="45" y2="-36"/>
						<line class="st2" x1="27" y1="108" x2="27" y2="-36"/>
						<line class="st2" x1="18" y1="108" x2="18" y2="-36"/>
						<line class="st2" x1="9" y1="108" x2="9" y2="-36"/>
						<line class="st2" x1="0" y1="108" x2="0" y2="-36"/>
						<line class="st2" x1="-36" y1="0" x2="108" y2="0"/>
						<line class="st2" x1="-36" y1="9" x2="108" y2="9"/>
						<line class="st2" x1="-36" y1="18" x2="108" y2="18"/>
						<line class="st2" x1="-36" y1="27" x2="108" y2="27"/>
						<line class="st2" x1="-36" y1="45" x2="108" y2="45"/>
						<line class="st2" x1="-36" y1="54" x2="108" y2="54"/>
						<line class="st2" x1="-36" y1="63" x2="108" y2="63"/>
						<line class="st2" x1="-36" y1="72" x2="108" y2="72"/>
						<line class="st2" x1="-36" y1="81" x2="108" y2="81"/>
						<line class="st2" x1="-36" y1="90" x2="108" y2="90"/>
						<line class="st2" x1="-36" y1="99" x2="108" y2="99"/>
					</g>
					<g>
						<line class="st3" x1="36" y1="108" x2="36" y2="-36"/>
						<line class="st3" x1="-36" y1="36" x2="108" y2="36"/>
					</g>
					<g>
						<line class="st4" x1="108" y1="108" x2="108" y2="-36"/>
						<line class="st4" x1="-36" y1="108" x2="108" y2="108"/>
					</g>
				</g>
				<g>
					<g>
						<line class="st2" x1="144" y1="108" x2="144" y2="-36"/>
						<line class="st2" x1="135" y1="108" x2="135" y2="-36"/>
						<line class="st2" x1="126" y1="108" x2="126" y2="-36"/>
						<line class="st2" x1="117" y1="108" x2="117" y2="-36"/>
						<line class="st2" x1="108" y1="0" x2="252" y2="0"/>
						<line class="st2" x1="108" y1="9" x2="252" y2="9"/>
						<line class="st2" x1="108" y1="18" x2="252" y2="18"/>
						<line class="st2" x1="108" y1="27" x2="252" y2="27"/>
						<line class="st2" x1="108" y1="45" x2="252" y2="45"/>
						<line class="st2" x1="108" y1="54" x2="252" y2="54"/>
						<line class="st2" x1="108" y1="63" x2="252" y2="63"/>
						<line class="st2" x1="108" y1="72" x2="252" y2="72"/>
						<line class="st2" x1="108" y1="81" x2="252" y2="81"/>
						<line class="st2" x1="108" y1="90" x2="252" y2="90"/>
						<line class="st2" x1="108" y1="99" x2="252" y2="99"/>
					</g>
					<g>
						<line class="st3" x1="108" y1="36" x2="252" y2="36"/>
					</g>
					<g>
						<line class="st4" x1="108" y1="108" x2="108" y2="-36"/>
						<line class="st4" x1="108" y1="108" x2="252" y2="108"/>
					</g>
				</g>
				<g>
					<g>
						<line class="st2" x1="99" y1="252" x2="99" y2="108"/>
						<line class="st2" x1="90" y1="252" x2="90" y2="108"/>
						<line class="st2" x1="81" y1="252" x2="81" y2="108"/>
						<line class="st2" x1="72" y1="252" x2="72" y2="108"/>
						<line class="st2" x1="63" y1="252" x2="63" y2="108"/>
						<line class="st2" x1="54" y1="252" x2="54" y2="108"/>
						<line class="st2" x1="45" y1="252" x2="45" y2="108"/>
						<line class="st2" x1="27" y1="252" x2="27" y2="108"/>
						<line class="st2" x1="18" y1="252" x2="18" y2="108"/>
						<line class="st2" x1="9" y1="252" x2="9" y2="108"/>
						<line class="st2" x1="0" y1="252" x2="0" y2="108"/>
						<line class="st2" x1="-36" y1="117" x2="108" y2="117"/>
						<line class="st2" x1="-36" y1="126" x2="108" y2="126"/>
						<line class="st2" x1="-36" y1="135" x2="108" y2="135"/>
						<line class="st2" x1="-36" y1="144" x2="108" y2="144"/>
					</g>
					<g>
						<line class="st3" x1="36" y1="252" x2="36" y2="108"/>
					</g>
					<g>
						<line class="st4" x1="-36" y1="108" x2="108" y2="108"/>
						<line class="st4" x1="108" y1="252" x2="108" y2="108"/>
					</g>
				</g>
				<g>
					<g>
						<line class="st2" x1="144" y1="252" x2="144" y2="108"/>
						<line class="st2" x1="135" y1="252" x2="135" y2="108"/>
						<line class="st2" x1="126" y1="252" x2="126" y2="108"/>
						<line class="st2" x1="117" y1="252" x2="117" y2="108"/>
						<line class="st2" x1="108" y1="117" x2="252" y2="117"/>
						<line class="st2" x1="108" y1="126" x2="252" y2="126"/>
						<line class="st2" x1="108" y1="135" x2="252" y2="135"/>
						<line class="st2" x1="108" y1="144" x2="252" y2="144"/>
					</g>
					<g>
						<line class="st4" x1="108" y1="108" x2="252" y2="108"/>
						<line class="st4" x1="108" y1="252" x2="108" y2="108"/>
					</g>
				</g>
			</g>
		</g>
	</g>
</g>
</svg>
