<svg id="Layer_1" data-name="Layer 1" xmlns="http://www.w3.org/2000/svg" viewBox="0 0 10.68 10.68"><defs><style>.cls-1{fill:#a7a9ac;}</style></defs><title>EditStep</title><g id="Edit"><path class="cls-1" d="M1143,898.26a0.88,0.88,0,0,0-1.25,0l-0.31.31L1137.1,903h0l-0.14.14s-0.44.44-1.43,3.65l0,0.07-0.05.18,0,0.16,0,0.14-0.1.32a1.27,1.27,0,0,0,0,1,1.29,1.29,0,0,0,1,0l0.32-.1,0.14,0,0.15,0,0.18-.06,0.05,0c3.05-1,3.6-1.4,3.65-1.44h0l0.14-.14h0l4.38-4.39h0l0.31-.31a0.89,0.89,0,0,0,0-1.25Zm-2.85,8h0a10.14,10.14,0,0,1-1.61.69l-1.13.42-1-1.18c0-.14.36-0.85,0.41-1a10.15,10.15,0,0,1,.69-1.62h0l0.11-.11,2.67,2.68Z" transform="translate(-1135.12 -898)"/></g></svg>