<svg id="Layer_1" data-name="Layer 1" xmlns="http://www.w3.org/2000/svg" xmlns:xlink="http://www.w3.org/1999/xlink" viewBox="0 0 20 20"><defs><style>.cls-1{fill:none;}.cls-2{clip-path:url(#clip-path);}.cls-3{fill:#f44336;}.cls-4{fill:#fff;}</style><clipPath id="clip-path" transform="translate(474 131)"><rect class="cls-1" x="-476" y="-133" width="24" height="24"/></clipPath></defs><title>Failed</title><g id="critical"><g class="cls-2"><g class="cls-2"><path class="cls-3" d="M-464-131a10,10,0,0,0-10,10,10,10,0,0,0,10,10,10,10,0,0,0,10-10,10,10,0,0,0-10-10" transform="translate(474 131)"/><polygon class="cls-4" points="12.99 14.88 10 11.89 7.01 14.88 5.12 12.99 8.11 10 5.12 7.01 7.01 5.12 10 8.11 12.99 5.12 14.88 7.01 11.89 10 14.88 12.99 12.99 14.88"/></g></g></g></svg>