<svg id="Layer_1" data-name="Layer 1" xmlns="http://www.w3.org/2000/svg" viewBox="0 0 18.76 16.64"><defs><style>.cls-1{fill:#3f75ba;}</style></defs><title>LoopIcon</title><path class="cls-1" d="M-1174.91,2366.1c7.08,4.76,2.82,11.51,2.82,11.51-1.9,3.13-4.36,4-6.49,4-0.34,0-.33-2.68,0-2.71a5.81,5.81,0,0,0,4.31-2.61,5.64,5.64,0,0,0-2-8c-6.21-3-8.32,3.15-8.32,3.15l2.49-.34-3.12,5.74-4.39-4.8,2.29-.34a10.53,10.53,0,0,1,1.09-2.8A8.29,8.29,0,0,1-1174.91,2366.1Z" transform="translate(1189.58 -2364.97)"/></svg>