<svg id="Layer_1" data-name="Layer 1" xmlns="http://www.w3.org/2000/svg" viewBox="0 0 18.48 15.66"><defs><style>.cls-1{fill:#fff;}.cls-2{fill:#d1d1d1;}</style></defs><title>TreeFolder</title><path class="cls-1" d="M6931.88,698.09a1.8,1.8,0,0,1-1.81-1.81V685.73a1.8,1.8,0,0,1,1.81-1.81h3.52a1.8,1.8,0,0,1,1.81,1.81v0.7a0.3,0.3,0,0,0,.31.31h7.74a1.8,1.8,0,0,1,1.81,1.8v7.74a1.8,1.8,0,0,1-1.81,1.81h-13.37Z" transform="translate(-6929.32 -683.17)"/><path class="cls-2" d="M6935.4,684.67a1.05,1.05,0,0,1,1.06,1.06v0.7a1.05,1.05,0,0,0,1.06,1.06h7.74a1.05,1.05,0,0,1,1.06,1.06v7.74a1.05,1.05,0,0,1-1.06,1.06h-13.37a1.05,1.05,0,0,1-1.06-1.06V685.73a1.05,1.05,0,0,1,1.06-1.06h3.52m0-1.5h-3.52a2.55,2.55,0,0,0-2.56,2.56v10.55a2.55,2.55,0,0,0,2.56,2.56h13.37a2.55,2.55,0,0,0,2.56-2.56v-7.74a2.55,2.55,0,0,0-2.56-2.56H6938v-0.26a2.55,2.55,0,0,0-2.56-2.56h0Z" transform="translate(-6929.32 -683.17)"/></svg>